<mxfile host="app.diagrams.net" modified="2021-02-21T17:52:53.737Z" agent="5.0 (Windows NT 10.0; Win64; x64) AppleWebKit/537.36 (KHTML, like Gecko) Chrome/88.0.4324.150 Safari/537.36" etag="qgNhk66hH5XLn5yZbY_z" version="14.3.0" type="github">
  <diagram id="C5RBs43oDa-KdzZeNtuy" name="Page-1">
    <mxGraphModel dx="1662" dy="705" grid="1" gridSize="10" guides="1" tooltips="1" connect="1" arrows="0" fold="1" page="1" pageScale="1" pageWidth="1600" pageHeight="900" math="0" shadow="0">
      <root>
        <object label="" id="WIyWlLk6GJQsqaUBKTNV-0">
          <mxCell />
        </object>
        <mxCell id="WIyWlLk6GJQsqaUBKTNV-1" parent="WIyWlLk6GJQsqaUBKTNV-0" />
        <mxCell id="lhQk18rv9-sTuvD8RSH--145" value="" style="rounded=0;whiteSpace=wrap;html=1;fontSize=28;" parent="WIyWlLk6GJQsqaUBKTNV-1" vertex="1">
          <mxGeometry x="1170" y="650" width="270" height="190" as="geometry" />
        </mxCell>
        <mxCell id="lhQk18rv9-sTuvD8RSH--43" value="" style="rounded=1;whiteSpace=wrap;html=1;fillColor=#ffe6cc;strokeColor=#d79b00;" parent="WIyWlLk6GJQsqaUBKTNV-1" vertex="1">
          <mxGeometry x="600" y="380" width="920" height="110" as="geometry" />
        </mxCell>
        <mxCell id="lhQk18rv9-sTuvD8RSH--42" value="" style="rounded=1;whiteSpace=wrap;html=1;fillColor=#ffe6cc;strokeColor=#d79b00;" parent="WIyWlLk6GJQsqaUBKTNV-1" vertex="1">
          <mxGeometry x="780" y="40" width="190" height="110" as="geometry" />
        </mxCell>
        <mxCell id="lhQk18rv9-sTuvD8RSH--38" value="" style="rounded=1;whiteSpace=wrap;html=1;fillColor=#ffe6cc;strokeColor=#d79b00;" parent="WIyWlLk6GJQsqaUBKTNV-1" vertex="1">
          <mxGeometry x="470" y="120" width="190" height="185" as="geometry" />
        </mxCell>
        <mxCell id="lhQk18rv9-sTuvD8RSH--108" style="edgeStyle=orthogonalEdgeStyle;rounded=0;orthogonalLoop=1;jettySize=auto;html=1;exitX=1;exitY=0.5;exitDx=0;exitDy=0;entryX=0.5;entryY=1;entryDx=0;entryDy=0;startArrow=none;startFill=0;endArrow=block;endFill=0;fontSize=28;" parent="WIyWlLk6GJQsqaUBKTNV-1" source="lhQk18rv9-sTuvD8RSH--0" target="lhQk18rv9-sTuvD8RSH--2" edge="1">
          <mxGeometry relative="1" as="geometry" />
        </mxCell>
        <mxCell id="lhQk18rv9-sTuvD8RSH--0" value="Enemy4" style="html=1;fillColor=#d5e8d4;strokeColor=#82b366;" parent="WIyWlLk6GJQsqaUBKTNV-1" vertex="1">
          <mxGeometry x="30" y="520" width="130" height="30" as="geometry" />
        </mxCell>
        <mxCell id="lhQk18rv9-sTuvD8RSH--65" style="edgeStyle=orthogonalEdgeStyle;rounded=0;orthogonalLoop=1;jettySize=auto;html=1;exitX=0.5;exitY=0;exitDx=0;exitDy=0;entryX=0;entryY=0.5;entryDx=0;entryDy=0;fontSize=28;" parent="WIyWlLk6GJQsqaUBKTNV-1" source="lhQk18rv9-sTuvD8RSH--2" target="lhQk18rv9-sTuvD8RSH--47" edge="1">
          <mxGeometry relative="1" as="geometry" />
        </mxCell>
        <mxCell id="lhQk18rv9-sTuvD8RSH--66" style="edgeStyle=orthogonalEdgeStyle;rounded=0;orthogonalLoop=1;jettySize=auto;html=1;exitX=0.25;exitY=0;exitDx=0;exitDy=0;entryX=0.423;entryY=1;entryDx=0;entryDy=0;entryPerimeter=0;fontSize=28;" parent="WIyWlLk6GJQsqaUBKTNV-1" source="lhQk18rv9-sTuvD8RSH--2" target="lhQk18rv9-sTuvD8RSH--32" edge="1">
          <mxGeometry relative="1" as="geometry" />
        </mxCell>
        <mxCell id="lhQk18rv9-sTuvD8RSH--2" value="Character" style="html=1;fillColor=#dae8fc;strokeColor=#6c8ebf;" parent="WIyWlLk6GJQsqaUBKTNV-1" vertex="1">
          <mxGeometry x="260" y="280" width="140" height="30" as="geometry" />
        </mxCell>
        <mxCell id="lhQk18rv9-sTuvD8RSH--101" style="edgeStyle=orthogonalEdgeStyle;rounded=0;orthogonalLoop=1;jettySize=auto;html=1;exitX=1;exitY=0.5;exitDx=0;exitDy=0;startArrow=none;startFill=0;endArrow=block;endFill=0;fontSize=28;" parent="WIyWlLk6GJQsqaUBKTNV-1" source="lhQk18rv9-sTuvD8RSH--3" edge="1">
          <mxGeometry relative="1" as="geometry">
            <mxPoint x="330" y="310" as="targetPoint" />
          </mxGeometry>
        </mxCell>
        <mxCell id="lhQk18rv9-sTuvD8RSH--3" value="Enemy3" style="html=1;fillColor=#d5e8d4;strokeColor=#82b366;" parent="WIyWlLk6GJQsqaUBKTNV-1" vertex="1">
          <mxGeometry x="30" y="460" width="130" height="30" as="geometry" />
        </mxCell>
        <mxCell id="lhQk18rv9-sTuvD8RSH--111" style="edgeStyle=orthogonalEdgeStyle;rounded=0;orthogonalLoop=1;jettySize=auto;html=1;exitX=1;exitY=0.5;exitDx=0;exitDy=0;entryX=0.5;entryY=1;entryDx=0;entryDy=0;startArrow=none;startFill=0;endArrow=block;endFill=0;fontSize=28;" parent="WIyWlLk6GJQsqaUBKTNV-1" source="lhQk18rv9-sTuvD8RSH--4" target="lhQk18rv9-sTuvD8RSH--2" edge="1">
          <mxGeometry relative="1" as="geometry" />
        </mxCell>
        <mxCell id="lhQk18rv9-sTuvD8RSH--4" value="Enemy2" style="html=1;fillColor=#d5e8d4;strokeColor=#82b366;" parent="WIyWlLk6GJQsqaUBKTNV-1" vertex="1">
          <mxGeometry x="30" y="400" width="130" height="30" as="geometry" />
        </mxCell>
        <mxCell id="lhQk18rv9-sTuvD8RSH--98" style="edgeStyle=orthogonalEdgeStyle;rounded=0;orthogonalLoop=1;jettySize=auto;html=1;exitX=1;exitY=0.5;exitDx=0;exitDy=0;entryX=0;entryY=0.5;entryDx=0;entryDy=0;startArrow=none;startFill=0;endArrow=block;endFill=0;fontSize=28;" parent="WIyWlLk6GJQsqaUBKTNV-1" source="lhQk18rv9-sTuvD8RSH--5" target="lhQk18rv9-sTuvD8RSH--2" edge="1">
          <mxGeometry relative="1" as="geometry" />
        </mxCell>
        <mxCell id="lhQk18rv9-sTuvD8RSH--5" value="Player" style="html=1;fillColor=#dae8fc;strokeColor=#6c8ebf;" parent="WIyWlLk6GJQsqaUBKTNV-1" vertex="1">
          <mxGeometry x="30" y="280" width="130" height="30" as="geometry" />
        </mxCell>
        <mxCell id="lhQk18rv9-sTuvD8RSH--110" style="edgeStyle=orthogonalEdgeStyle;rounded=0;orthogonalLoop=1;jettySize=auto;html=1;exitX=1;exitY=0.5;exitDx=0;exitDy=0;entryX=0.5;entryY=1;entryDx=0;entryDy=0;startArrow=none;startFill=0;endArrow=block;endFill=0;fontSize=28;" parent="WIyWlLk6GJQsqaUBKTNV-1" source="lhQk18rv9-sTuvD8RSH--6" target="lhQk18rv9-sTuvD8RSH--2" edge="1">
          <mxGeometry relative="1" as="geometry" />
        </mxCell>
        <mxCell id="lhQk18rv9-sTuvD8RSH--6" value="Enemy1" style="html=1;fillColor=#d5e8d4;strokeColor=#82b366;" parent="WIyWlLk6GJQsqaUBKTNV-1" vertex="1">
          <mxGeometry x="30" y="340" width="130" height="30" as="geometry" />
        </mxCell>
        <mxCell id="lhQk18rv9-sTuvD8RSH--105" style="edgeStyle=orthogonalEdgeStyle;rounded=0;orthogonalLoop=1;jettySize=auto;html=1;exitX=0;exitY=0.5;exitDx=0;exitDy=0;entryX=0.5;entryY=1;entryDx=0;entryDy=0;startArrow=none;startFill=0;endArrow=block;endFill=0;fontSize=28;" parent="WIyWlLk6GJQsqaUBKTNV-1" source="lhQk18rv9-sTuvD8RSH--7" target="lhQk18rv9-sTuvD8RSH--2" edge="1">
          <mxGeometry relative="1" as="geometry" />
        </mxCell>
        <mxCell id="lhQk18rv9-sTuvD8RSH--7" value="BossFire" style="html=1;fillColor=#dae8fc;strokeColor=#6c8ebf;" parent="WIyWlLk6GJQsqaUBKTNV-1" vertex="1">
          <mxGeometry x="380" y="460" width="130" height="30" as="geometry" />
        </mxCell>
        <mxCell id="lhQk18rv9-sTuvD8RSH--109" style="edgeStyle=orthogonalEdgeStyle;rounded=0;orthogonalLoop=1;jettySize=auto;html=1;exitX=1;exitY=0.5;exitDx=0;exitDy=0;entryX=0.5;entryY=1;entryDx=0;entryDy=0;startArrow=none;startFill=0;endArrow=block;endFill=0;fontSize=28;" parent="WIyWlLk6GJQsqaUBKTNV-1" source="lhQk18rv9-sTuvD8RSH--8" target="lhQk18rv9-sTuvD8RSH--2" edge="1">
          <mxGeometry relative="1" as="geometry" />
        </mxCell>
        <mxCell id="lhQk18rv9-sTuvD8RSH--8" value="Boss" style="html=1;fillColor=#dae8fc;strokeColor=#6c8ebf;" parent="WIyWlLk6GJQsqaUBKTNV-1" vertex="1">
          <mxGeometry x="30" y="580" width="130" height="30" as="geometry" />
        </mxCell>
        <mxCell id="lhQk18rv9-sTuvD8RSH--106" style="edgeStyle=orthogonalEdgeStyle;rounded=0;orthogonalLoop=1;jettySize=auto;html=1;exitX=0;exitY=0.5;exitDx=0;exitDy=0;entryX=0.5;entryY=1;entryDx=0;entryDy=0;startArrow=none;startFill=0;endArrow=block;endFill=0;fontSize=28;" parent="WIyWlLk6GJQsqaUBKTNV-1" source="lhQk18rv9-sTuvD8RSH--9" target="lhQk18rv9-sTuvD8RSH--2" edge="1">
          <mxGeometry relative="1" as="geometry" />
        </mxCell>
        <mxCell id="lhQk18rv9-sTuvD8RSH--9" value="Ball" style="html=1;fillColor=#dae8fc;strokeColor=#6c8ebf;" parent="WIyWlLk6GJQsqaUBKTNV-1" vertex="1">
          <mxGeometry x="380" y="520" width="130" height="30" as="geometry" />
        </mxCell>
        <mxCell id="lhQk18rv9-sTuvD8RSH--131" style="edgeStyle=orthogonalEdgeStyle;rounded=0;orthogonalLoop=1;jettySize=auto;html=1;exitX=0.5;exitY=0;exitDx=0;exitDy=0;entryX=0.5;entryY=1;entryDx=0;entryDy=0;startArrow=none;startFill=0;endArrow=block;endFill=0;fontSize=28;" parent="WIyWlLk6GJQsqaUBKTNV-1" source="lhQk18rv9-sTuvD8RSH--10" target="lhQk18rv9-sTuvD8RSH--9" edge="1">
          <mxGeometry relative="1" as="geometry" />
        </mxCell>
        <mxCell id="lhQk18rv9-sTuvD8RSH--10" value="EnemyBall" style="html=1;fillColor=#d5e8d4;strokeColor=#82b366;" parent="WIyWlLk6GJQsqaUBKTNV-1" vertex="1">
          <mxGeometry x="380" y="580" width="130" height="30" as="geometry" />
        </mxCell>
        <mxCell id="lhQk18rv9-sTuvD8RSH--69" style="edgeStyle=orthogonalEdgeStyle;rounded=0;orthogonalLoop=1;jettySize=auto;html=1;exitX=0;exitY=0.5;exitDx=0;exitDy=0;entryX=1;entryY=0.25;entryDx=0;entryDy=0;fontSize=28;" parent="WIyWlLk6GJQsqaUBKTNV-1" source="lhQk18rv9-sTuvD8RSH--12" target="lhQk18rv9-sTuvD8RSH--13" edge="1">
          <mxGeometry relative="1" as="geometry" />
        </mxCell>
        <mxCell id="lhQk18rv9-sTuvD8RSH--113" style="edgeStyle=orthogonalEdgeStyle;rounded=0;orthogonalLoop=1;jettySize=auto;html=1;exitX=1;exitY=0.5;exitDx=0;exitDy=0;entryX=0.5;entryY=0;entryDx=0;entryDy=0;startArrow=none;startFill=0;endArrow=block;endFill=0;fontSize=28;dashed=1;" parent="WIyWlLk6GJQsqaUBKTNV-1" source="lhQk18rv9-sTuvD8RSH--12" target="lhQk18rv9-sTuvD8RSH--71" edge="1">
          <mxGeometry relative="1" as="geometry" />
        </mxCell>
        <mxCell id="lhQk18rv9-sTuvD8RSH--12" value="CharaController" style="html=1;fillColor=#d5e8d4;strokeColor=#82b366;" parent="WIyWlLk6GJQsqaUBKTNV-1" vertex="1">
          <mxGeometry x="810" y="105" width="130" height="30" as="geometry" />
        </mxCell>
        <mxCell id="lhQk18rv9-sTuvD8RSH--67" style="edgeStyle=orthogonalEdgeStyle;rounded=0;orthogonalLoop=1;jettySize=auto;html=1;exitX=0;exitY=0.5;exitDx=0;exitDy=0;entryX=0.662;entryY=1.033;entryDx=0;entryDy=0;entryPerimeter=0;fontSize=28;" parent="WIyWlLk6GJQsqaUBKTNV-1" source="lhQk18rv9-sTuvD8RSH--13" target="lhQk18rv9-sTuvD8RSH--32" edge="1">
          <mxGeometry relative="1" as="geometry" />
        </mxCell>
        <mxCell id="lhQk18rv9-sTuvD8RSH--76" style="edgeStyle=orthogonalEdgeStyle;rounded=0;orthogonalLoop=1;jettySize=auto;html=1;exitX=0.4;exitY=0.967;exitDx=0;exitDy=0;entryX=0.392;entryY=-0.067;entryDx=0;entryDy=0;fontSize=28;exitPerimeter=0;entryPerimeter=0;" parent="WIyWlLk6GJQsqaUBKTNV-1" source="lhQk18rv9-sTuvD8RSH--13" target="lhQk18rv9-sTuvD8RSH--47" edge="1">
          <mxGeometry relative="1" as="geometry" />
        </mxCell>
        <mxCell id="lhQk18rv9-sTuvD8RSH--126" style="edgeStyle=orthogonalEdgeStyle;rounded=0;orthogonalLoop=1;jettySize=auto;html=1;exitX=0.25;exitY=0;exitDx=0;exitDy=0;entryX=0;entryY=0.5;entryDx=0;entryDy=0;dashed=1;startArrow=none;startFill=0;endArrow=block;endFill=0;fontSize=28;" parent="WIyWlLk6GJQsqaUBKTNV-1" source="lhQk18rv9-sTuvD8RSH--13" target="lhQk18rv9-sTuvD8RSH--74" edge="1">
          <mxGeometry relative="1" as="geometry">
            <Array as="points">
              <mxPoint x="533" y="170" />
              <mxPoint x="480" y="170" />
              <mxPoint x="480" y="75" />
            </Array>
          </mxGeometry>
        </mxCell>
        <mxCell id="lhQk18rv9-sTuvD8RSH--13" value="Model" style="html=1;fillColor=#dae8fc;strokeColor=#6c8ebf;" parent="WIyWlLk6GJQsqaUBKTNV-1" vertex="1">
          <mxGeometry x="500" y="175" width="130" height="30" as="geometry" />
        </mxCell>
        <mxCell id="lhQk18rv9-sTuvD8RSH--86" style="edgeStyle=orthogonalEdgeStyle;rounded=0;orthogonalLoop=1;jettySize=auto;html=1;exitX=0.5;exitY=0;exitDx=0;exitDy=0;entryX=0.5;entryY=1;entryDx=0;entryDy=0;fontSize=28;" parent="WIyWlLk6GJQsqaUBKTNV-1" source="lhQk18rv9-sTuvD8RSH--14" target="lhQk18rv9-sTuvD8RSH--34" edge="1">
          <mxGeometry relative="1" as="geometry">
            <Array as="points">
              <mxPoint x="1100" y="440" />
              <mxPoint x="1100" y="355" />
              <mxPoint x="875" y="355" />
            </Array>
          </mxGeometry>
        </mxCell>
        <mxCell id="lhQk18rv9-sTuvD8RSH--94" style="edgeStyle=orthogonalEdgeStyle;rounded=0;orthogonalLoop=1;jettySize=auto;html=1;exitX=0.5;exitY=1;exitDx=0;exitDy=0;startArrow=none;startFill=0;endArrow=block;endFill=0;fontSize=28;dashed=1;" parent="WIyWlLk6GJQsqaUBKTNV-1" source="lhQk18rv9-sTuvD8RSH--14" target="lhQk18rv9-sTuvD8RSH--73" edge="1">
          <mxGeometry relative="1" as="geometry">
            <Array as="points">
              <mxPoint x="1065" y="520" />
              <mxPoint x="1035" y="520" />
            </Array>
          </mxGeometry>
        </mxCell>
        <mxCell id="lhQk18rv9-sTuvD8RSH--95" style="edgeStyle=orthogonalEdgeStyle;rounded=0;orthogonalLoop=1;jettySize=auto;html=1;exitX=0.25;exitY=1;exitDx=0;exitDy=0;entryX=0.5;entryY=0;entryDx=0;entryDy=0;startArrow=none;startFill=0;endArrow=block;endFill=0;fontSize=28;" parent="WIyWlLk6GJQsqaUBKTNV-1" source="lhQk18rv9-sTuvD8RSH--14" target="lhQk18rv9-sTuvD8RSH--72" edge="1">
          <mxGeometry relative="1" as="geometry" />
        </mxCell>
        <mxCell id="lhQk18rv9-sTuvD8RSH--121" style="edgeStyle=orthogonalEdgeStyle;rounded=0;orthogonalLoop=1;jettySize=auto;html=1;exitX=0.25;exitY=0;exitDx=0;exitDy=0;entryX=0.5;entryY=1;entryDx=0;entryDy=0;startArrow=none;startFill=0;endArrow=classic;endFill=1;fontSize=28;" parent="WIyWlLk6GJQsqaUBKTNV-1" source="lhQk18rv9-sTuvD8RSH--14" target="lhQk18rv9-sTuvD8RSH--47" edge="1">
          <mxGeometry relative="1" as="geometry">
            <Array as="points">
              <mxPoint x="1033" y="340" />
              <mxPoint x="565" y="340" />
            </Array>
          </mxGeometry>
        </mxCell>
        <mxCell id="lhQk18rv9-sTuvD8RSH--127" style="edgeStyle=orthogonalEdgeStyle;rounded=0;orthogonalLoop=1;jettySize=auto;html=1;exitX=0;exitY=0.5;exitDx=0;exitDy=0;entryX=1;entryY=0.5;entryDx=0;entryDy=0;startArrow=none;startFill=0;endArrow=classic;endFill=1;fontSize=28;" parent="WIyWlLk6GJQsqaUBKTNV-1" source="lhQk18rv9-sTuvD8RSH--14" target="lhQk18rv9-sTuvD8RSH--13" edge="1">
          <mxGeometry relative="1" as="geometry">
            <Array as="points">
              <mxPoint x="980" y="455" />
              <mxPoint x="980" y="190" />
            </Array>
          </mxGeometry>
        </mxCell>
        <mxCell id="lhQk18rv9-sTuvD8RSH--135" style="edgeStyle=orthogonalEdgeStyle;rounded=0;orthogonalLoop=1;jettySize=auto;html=1;exitX=0.054;exitY=-0.067;exitDx=0;exitDy=0;entryX=0.5;entryY=1;entryDx=0;entryDy=0;startArrow=none;startFill=0;endArrow=classic;endFill=1;fontSize=28;exitPerimeter=0;" parent="WIyWlLk6GJQsqaUBKTNV-1" source="lhQk18rv9-sTuvD8RSH--14" target="lhQk18rv9-sTuvD8RSH--12" edge="1">
          <mxGeometry relative="1" as="geometry">
            <Array as="points">
              <mxPoint x="1007" y="170" />
              <mxPoint x="875" y="170" />
            </Array>
          </mxGeometry>
        </mxCell>
        <mxCell id="lhQk18rv9-sTuvD8RSH--138" style="edgeStyle=orthogonalEdgeStyle;rounded=0;orthogonalLoop=1;jettySize=auto;html=1;exitX=0.5;exitY=1;exitDx=0;exitDy=0;startArrow=none;startFill=0;endArrow=block;endFill=0;fontSize=28;dashed=1;" parent="WIyWlLk6GJQsqaUBKTNV-1" source="lhQk18rv9-sTuvD8RSH--14" target="lhQk18rv9-sTuvD8RSH--137" edge="1">
          <mxGeometry relative="1" as="geometry">
            <Array as="points">
              <mxPoint x="1065" y="520" />
              <mxPoint x="1185" y="520" />
            </Array>
          </mxGeometry>
        </mxCell>
        <mxCell id="lhQk18rv9-sTuvD8RSH--14" value="GameView" style="html=1;gradientDirection=east;fillColor=#D4E1F5;gradientColor=#CDA2BE;rounded=0;" parent="WIyWlLk6GJQsqaUBKTNV-1" vertex="1">
          <mxGeometry x="1000" y="440" width="130" height="30" as="geometry" />
        </mxCell>
        <mxCell id="lhQk18rv9-sTuvD8RSH--87" style="edgeStyle=orthogonalEdgeStyle;rounded=0;orthogonalLoop=1;jettySize=auto;html=1;exitX=0.5;exitY=0;exitDx=0;exitDy=0;entryX=0.5;entryY=1;entryDx=0;entryDy=0;fontSize=28;" parent="WIyWlLk6GJQsqaUBKTNV-1" source="lhQk18rv9-sTuvD8RSH--15" target="lhQk18rv9-sTuvD8RSH--34" edge="1">
          <mxGeometry relative="1" as="geometry" />
        </mxCell>
        <mxCell id="lhQk18rv9-sTuvD8RSH--96" style="edgeStyle=orthogonalEdgeStyle;rounded=0;orthogonalLoop=1;jettySize=auto;html=1;exitX=0.5;exitY=1;exitDx=0;exitDy=0;entryX=0.5;entryY=0;entryDx=0;entryDy=0;startArrow=none;startFill=0;endArrow=block;endFill=0;fontSize=28;" parent="WIyWlLk6GJQsqaUBKTNV-1" source="lhQk18rv9-sTuvD8RSH--15" target="lhQk18rv9-sTuvD8RSH--72" edge="1">
          <mxGeometry relative="1" as="geometry" />
        </mxCell>
        <mxCell id="lhQk18rv9-sTuvD8RSH--116" style="edgeStyle=orthogonalEdgeStyle;rounded=0;orthogonalLoop=1;jettySize=auto;html=1;exitX=0.75;exitY=0;exitDx=0;exitDy=0;entryX=0.5;entryY=1;entryDx=0;entryDy=0;dashed=1;startArrow=none;startFill=0;endArrow=block;endFill=0;fontSize=28;" parent="WIyWlLk6GJQsqaUBKTNV-1" source="lhQk18rv9-sTuvD8RSH--15" target="lhQk18rv9-sTuvD8RSH--71" edge="1">
          <mxGeometry relative="1" as="geometry" />
        </mxCell>
        <mxCell id="lhQk18rv9-sTuvD8RSH--122" style="edgeStyle=orthogonalEdgeStyle;rounded=0;orthogonalLoop=1;jettySize=auto;html=1;exitX=0.25;exitY=0;exitDx=0;exitDy=0;entryX=0.5;entryY=1;entryDx=0;entryDy=0;startArrow=none;startFill=0;endArrow=classic;endFill=1;fontSize=28;" parent="WIyWlLk6GJQsqaUBKTNV-1" source="lhQk18rv9-sTuvD8RSH--15" target="lhQk18rv9-sTuvD8RSH--34" edge="1">
          <mxGeometry relative="1" as="geometry" />
        </mxCell>
        <mxCell id="lhQk18rv9-sTuvD8RSH--128" style="edgeStyle=orthogonalEdgeStyle;rounded=0;orthogonalLoop=1;jettySize=auto;html=1;exitX=0;exitY=0.5;exitDx=0;exitDy=0;entryX=1;entryY=0.5;entryDx=0;entryDy=0;startArrow=none;startFill=0;endArrow=classic;endFill=1;fontSize=28;" parent="WIyWlLk6GJQsqaUBKTNV-1" source="lhQk18rv9-sTuvD8RSH--15" target="lhQk18rv9-sTuvD8RSH--13" edge="1">
          <mxGeometry relative="1" as="geometry">
            <Array as="points">
              <mxPoint x="1160" y="455" />
              <mxPoint x="1160" y="290" />
              <mxPoint x="980" y="290" />
              <mxPoint x="980" y="190" />
            </Array>
          </mxGeometry>
        </mxCell>
        <mxCell id="lhQk18rv9-sTuvD8RSH--15" value="GameOverView" style="html=1;fillColor=#e1d5e7;strokeColor=#9673a6;" parent="WIyWlLk6GJQsqaUBKTNV-1" vertex="1">
          <mxGeometry x="1180" y="440" width="130" height="30" as="geometry" />
        </mxCell>
        <mxCell id="lhQk18rv9-sTuvD8RSH--83" style="edgeStyle=orthogonalEdgeStyle;rounded=0;orthogonalLoop=1;jettySize=auto;html=1;exitX=0.5;exitY=0;exitDx=0;exitDy=0;entryX=0.5;entryY=1;entryDx=0;entryDy=0;fontSize=28;" parent="WIyWlLk6GJQsqaUBKTNV-1" source="lhQk18rv9-sTuvD8RSH--16" target="lhQk18rv9-sTuvD8RSH--34" edge="1">
          <mxGeometry relative="1" as="geometry" />
        </mxCell>
        <mxCell id="lhQk18rv9-sTuvD8RSH--93" style="edgeStyle=orthogonalEdgeStyle;rounded=0;orthogonalLoop=1;jettySize=auto;html=1;exitX=0.5;exitY=1;exitDx=0;exitDy=0;entryX=0.5;entryY=0;entryDx=0;entryDy=0;startArrow=none;startFill=0;endArrow=block;endFill=0;fontSize=28;" parent="WIyWlLk6GJQsqaUBKTNV-1" source="lhQk18rv9-sTuvD8RSH--16" target="lhQk18rv9-sTuvD8RSH--72" edge="1">
          <mxGeometry relative="1" as="geometry" />
        </mxCell>
        <mxCell id="lhQk18rv9-sTuvD8RSH--114" style="edgeStyle=orthogonalEdgeStyle;rounded=0;orthogonalLoop=1;jettySize=auto;html=1;exitX=0.75;exitY=0;exitDx=0;exitDy=0;entryX=0.5;entryY=1;entryDx=0;entryDy=0;dashed=1;startArrow=none;startFill=0;endArrow=block;endFill=0;fontSize=28;" parent="WIyWlLk6GJQsqaUBKTNV-1" source="lhQk18rv9-sTuvD8RSH--16" target="lhQk18rv9-sTuvD8RSH--71" edge="1">
          <mxGeometry relative="1" as="geometry" />
        </mxCell>
        <mxCell id="lhQk18rv9-sTuvD8RSH--119" style="edgeStyle=orthogonalEdgeStyle;rounded=0;orthogonalLoop=1;jettySize=auto;html=1;exitX=0.25;exitY=0;exitDx=0;exitDy=0;entryX=0.5;entryY=1;entryDx=0;entryDy=0;startArrow=none;startFill=0;endArrow=classic;endFill=1;fontSize=28;" parent="WIyWlLk6GJQsqaUBKTNV-1" source="lhQk18rv9-sTuvD8RSH--16" target="lhQk18rv9-sTuvD8RSH--47" edge="1">
          <mxGeometry relative="1" as="geometry">
            <Array as="points">
              <mxPoint x="673" y="340" />
              <mxPoint x="565" y="340" />
            </Array>
          </mxGeometry>
        </mxCell>
        <mxCell id="lhQk18rv9-sTuvD8RSH--16" value="TitleView" style="html=1;fillColor=#e1d5e7;strokeColor=#9673a6;" parent="WIyWlLk6GJQsqaUBKTNV-1" vertex="1">
          <mxGeometry x="640" y="440" width="130" height="30" as="geometry" />
        </mxCell>
        <mxCell id="lhQk18rv9-sTuvD8RSH--85" style="edgeStyle=orthogonalEdgeStyle;rounded=0;orthogonalLoop=1;jettySize=auto;html=1;exitX=0.5;exitY=0;exitDx=0;exitDy=0;entryX=0.5;entryY=1;entryDx=0;entryDy=0;fontSize=28;" parent="WIyWlLk6GJQsqaUBKTNV-1" source="lhQk18rv9-sTuvD8RSH--17" target="lhQk18rv9-sTuvD8RSH--34" edge="1">
          <mxGeometry relative="1" as="geometry" />
        </mxCell>
        <mxCell id="lhQk18rv9-sTuvD8RSH--92" style="edgeStyle=orthogonalEdgeStyle;rounded=0;orthogonalLoop=1;jettySize=auto;html=1;exitX=0.5;exitY=1;exitDx=0;exitDy=0;entryX=0.5;entryY=0;entryDx=0;entryDy=0;fontSize=28;startArrow=none;startFill=0;endArrow=block;endFill=0;" parent="WIyWlLk6GJQsqaUBKTNV-1" source="lhQk18rv9-sTuvD8RSH--17" target="lhQk18rv9-sTuvD8RSH--72" edge="1">
          <mxGeometry relative="1" as="geometry" />
        </mxCell>
        <mxCell id="lhQk18rv9-sTuvD8RSH--118" style="edgeStyle=orthogonalEdgeStyle;rounded=0;orthogonalLoop=1;jettySize=auto;html=1;exitX=0.75;exitY=0;exitDx=0;exitDy=0;entryX=0.5;entryY=1;entryDx=0;entryDy=0;dashed=1;startArrow=none;startFill=0;endArrow=block;endFill=0;fontSize=28;" parent="WIyWlLk6GJQsqaUBKTNV-1" source="lhQk18rv9-sTuvD8RSH--17" target="lhQk18rv9-sTuvD8RSH--71" edge="1">
          <mxGeometry relative="1" as="geometry" />
        </mxCell>
        <mxCell id="lhQk18rv9-sTuvD8RSH--120" style="edgeStyle=orthogonalEdgeStyle;rounded=0;orthogonalLoop=1;jettySize=auto;html=1;exitX=0.25;exitY=0;exitDx=0;exitDy=0;entryX=0.5;entryY=1;entryDx=0;entryDy=0;startArrow=none;startFill=0;endArrow=classic;endFill=1;fontSize=28;" parent="WIyWlLk6GJQsqaUBKTNV-1" source="lhQk18rv9-sTuvD8RSH--17" target="lhQk18rv9-sTuvD8RSH--47" edge="1">
          <mxGeometry relative="1" as="geometry">
            <Array as="points">
              <mxPoint x="853" y="340" />
              <mxPoint x="565" y="340" />
            </Array>
          </mxGeometry>
        </mxCell>
        <mxCell id="lhQk18rv9-sTuvD8RSH--17" value="TitleView1" style="html=1;fillColor=#e1d5e7;strokeColor=#9673a6;" parent="WIyWlLk6GJQsqaUBKTNV-1" vertex="1">
          <mxGeometry x="820" y="440" width="130" height="30" as="geometry" />
        </mxCell>
        <mxCell id="lhQk18rv9-sTuvD8RSH--68" style="edgeStyle=orthogonalEdgeStyle;rounded=0;orthogonalLoop=1;jettySize=auto;html=1;exitX=0.75;exitY=1;exitDx=0;exitDy=0;entryX=0;entryY=0.25;entryDx=0;entryDy=0;fontSize=28;" parent="WIyWlLk6GJQsqaUBKTNV-1" source="lhQk18rv9-sTuvD8RSH--32" target="lhQk18rv9-sTuvD8RSH--13" edge="1">
          <mxGeometry relative="1" as="geometry" />
        </mxCell>
        <mxCell id="lhQk18rv9-sTuvD8RSH--32" value="Field" style="html=1;fillColor=#dae8fc;strokeColor=#6c8ebf;" parent="WIyWlLk6GJQsqaUBKTNV-1" vertex="1">
          <mxGeometry x="240" y="120" width="130" height="30" as="geometry" />
        </mxCell>
        <mxCell id="lhQk18rv9-sTuvD8RSH--82" style="edgeStyle=orthogonalEdgeStyle;rounded=0;orthogonalLoop=1;jettySize=auto;html=1;exitX=0;exitY=0.5;exitDx=0;exitDy=0;entryX=1;entryY=0.5;entryDx=0;entryDy=0;fontSize=28;" parent="WIyWlLk6GJQsqaUBKTNV-1" source="lhQk18rv9-sTuvD8RSH--33" target="lhQk18rv9-sTuvD8RSH--34" edge="1">
          <mxGeometry relative="1" as="geometry" />
        </mxCell>
        <mxCell id="lhQk18rv9-sTuvD8RSH--130" style="edgeStyle=orthogonalEdgeStyle;rounded=0;orthogonalLoop=1;jettySize=auto;html=1;exitX=0.5;exitY=0;exitDx=0;exitDy=0;entryX=0.5;entryY=1;entryDx=0;entryDy=0;startArrow=none;startFill=0;endArrow=block;endFill=0;fontSize=28;" parent="WIyWlLk6GJQsqaUBKTNV-1" source="lhQk18rv9-sTuvD8RSH--33" target="lhQk18rv9-sTuvD8RSH--70" edge="1">
          <mxGeometry relative="1" as="geometry" />
        </mxCell>
        <mxCell id="lhQk18rv9-sTuvD8RSH--33" value="MainFrame" style="html=1;fillColor=#dae8fc;strokeColor=#6c8ebf;" parent="WIyWlLk6GJQsqaUBKTNV-1" vertex="1">
          <mxGeometry x="1080" y="240" width="130" height="30" as="geometry" />
        </mxCell>
        <mxCell id="lhQk18rv9-sTuvD8RSH--79" style="edgeStyle=orthogonalEdgeStyle;rounded=0;orthogonalLoop=1;jettySize=auto;html=1;exitX=0;exitY=0.75;exitDx=0;exitDy=0;entryX=1;entryY=0.5;entryDx=0;entryDy=0;fontSize=28;" parent="WIyWlLk6GJQsqaUBKTNV-1" source="lhQk18rv9-sTuvD8RSH--34" target="lhQk18rv9-sTuvD8RSH--47" edge="1">
          <mxGeometry relative="1" as="geometry">
            <Array as="points">
              <mxPoint x="810" y="260" />
            </Array>
          </mxGeometry>
        </mxCell>
        <mxCell id="lhQk18rv9-sTuvD8RSH--81" style="edgeStyle=orthogonalEdgeStyle;rounded=0;orthogonalLoop=1;jettySize=auto;html=1;exitX=1;exitY=0.25;exitDx=0;exitDy=0;entryX=0;entryY=0.25;entryDx=0;entryDy=0;fontSize=28;" parent="WIyWlLk6GJQsqaUBKTNV-1" source="lhQk18rv9-sTuvD8RSH--34" target="lhQk18rv9-sTuvD8RSH--33" edge="1">
          <mxGeometry relative="1" as="geometry" />
        </mxCell>
        <mxCell id="9DbeKYzs1I5VuVyPh96a-0" style="edgeStyle=orthogonalEdgeStyle;rounded=0;orthogonalLoop=1;jettySize=auto;html=1;exitX=0.5;exitY=0;exitDx=0;exitDy=0;entryX=1;entryY=0.75;entryDx=0;entryDy=0;" edge="1" parent="WIyWlLk6GJQsqaUBKTNV-1" source="lhQk18rv9-sTuvD8RSH--34" target="lhQk18rv9-sTuvD8RSH--13">
          <mxGeometry relative="1" as="geometry" />
        </mxCell>
        <mxCell id="lhQk18rv9-sTuvD8RSH--34" value="SceneManager" style="html=1;fillColor=#e1d5e7;strokeColor=#9673a6;" parent="WIyWlLk6GJQsqaUBKTNV-1" vertex="1">
          <mxGeometry x="810" y="240" width="130" height="30" as="geometry" />
        </mxCell>
        <mxCell id="lhQk18rv9-sTuvD8RSH--112" style="edgeStyle=orthogonalEdgeStyle;rounded=0;orthogonalLoop=1;jettySize=auto;html=1;exitX=0;exitY=0.5;exitDx=0;exitDy=0;entryX=0.5;entryY=1;entryDx=0;entryDy=0;startArrow=none;startFill=0;endArrow=block;endFill=0;fontSize=28;" parent="WIyWlLk6GJQsqaUBKTNV-1" source="lhQk18rv9-sTuvD8RSH--35" target="lhQk18rv9-sTuvD8RSH--2" edge="1">
          <mxGeometry relative="1" as="geometry" />
        </mxCell>
        <mxCell id="lhQk18rv9-sTuvD8RSH--35" value="Coin" style="html=1;fillColor=#dae8fc;strokeColor=#6c8ebf;" parent="WIyWlLk6GJQsqaUBKTNV-1" vertex="1">
          <mxGeometry x="380" y="400" width="130" height="30" as="geometry" />
        </mxCell>
        <mxCell id="lhQk18rv9-sTuvD8RSH--40" value="Model" style="text;html=1;align=center;verticalAlign=middle;resizable=0;points=[];autosize=1;fontSize=28;" parent="WIyWlLk6GJQsqaUBKTNV-1" vertex="1">
          <mxGeometry x="520" y="120" width="90" height="40" as="geometry" />
        </mxCell>
        <mxCell id="lhQk18rv9-sTuvD8RSH--41" value="Controller" style="text;html=1;align=center;verticalAlign=middle;resizable=0;points=[];autosize=1;fontSize=28;" parent="WIyWlLk6GJQsqaUBKTNV-1" vertex="1">
          <mxGeometry x="800" y="50" width="140" height="40" as="geometry" />
        </mxCell>
        <mxCell id="lhQk18rv9-sTuvD8RSH--75" style="edgeStyle=orthogonalEdgeStyle;rounded=0;orthogonalLoop=1;jettySize=auto;html=1;exitX=0;exitY=0.75;exitDx=0;exitDy=0;fontSize=28;" parent="WIyWlLk6GJQsqaUBKTNV-1" source="lhQk18rv9-sTuvD8RSH--47" edge="1">
          <mxGeometry relative="1" as="geometry">
            <mxPoint x="350" y="280" as="targetPoint" />
            <Array as="points">
              <mxPoint x="350" y="268" />
            </Array>
          </mxGeometry>
        </mxCell>
        <mxCell id="lhQk18rv9-sTuvD8RSH--77" style="edgeStyle=orthogonalEdgeStyle;rounded=0;orthogonalLoop=1;jettySize=auto;html=1;exitX=0.631;exitY=-0.033;exitDx=0;exitDy=0;fontSize=28;exitPerimeter=0;entryX=0.623;entryY=1.033;entryDx=0;entryDy=0;entryPerimeter=0;" parent="WIyWlLk6GJQsqaUBKTNV-1" source="lhQk18rv9-sTuvD8RSH--47" target="lhQk18rv9-sTuvD8RSH--13" edge="1">
          <mxGeometry relative="1" as="geometry">
            <mxPoint x="582" y="210" as="targetPoint" />
          </mxGeometry>
        </mxCell>
        <mxCell id="lhQk18rv9-sTuvD8RSH--47" value="SoundManager" style="html=1;fillColor=#dae8fc;strokeColor=#6c8ebf;" parent="WIyWlLk6GJQsqaUBKTNV-1" vertex="1">
          <mxGeometry x="500" y="245" width="130" height="30" as="geometry" />
        </mxCell>
        <mxCell id="lhQk18rv9-sTuvD8RSH--88" style="edgeStyle=orthogonalEdgeStyle;rounded=0;orthogonalLoop=1;jettySize=auto;html=1;exitX=0.5;exitY=0;exitDx=0;exitDy=0;entryX=0.5;entryY=1;entryDx=0;entryDy=0;fontSize=28;" parent="WIyWlLk6GJQsqaUBKTNV-1" source="lhQk18rv9-sTuvD8RSH--48" target="lhQk18rv9-sTuvD8RSH--34" edge="1">
          <mxGeometry relative="1" as="geometry" />
        </mxCell>
        <mxCell id="lhQk18rv9-sTuvD8RSH--97" style="edgeStyle=orthogonalEdgeStyle;rounded=0;orthogonalLoop=1;jettySize=auto;html=1;exitX=0.5;exitY=1;exitDx=0;exitDy=0;entryX=0.5;entryY=0;entryDx=0;entryDy=0;startArrow=none;startFill=0;endArrow=block;endFill=0;fontSize=28;" parent="WIyWlLk6GJQsqaUBKTNV-1" source="lhQk18rv9-sTuvD8RSH--48" target="lhQk18rv9-sTuvD8RSH--72" edge="1">
          <mxGeometry relative="1" as="geometry" />
        </mxCell>
        <mxCell id="lhQk18rv9-sTuvD8RSH--115" style="edgeStyle=orthogonalEdgeStyle;rounded=0;orthogonalLoop=1;jettySize=auto;html=1;exitX=0.75;exitY=0;exitDx=0;exitDy=0;entryX=0.5;entryY=1;entryDx=0;entryDy=0;dashed=1;startArrow=none;startFill=0;endArrow=block;endFill=0;fontSize=28;" parent="WIyWlLk6GJQsqaUBKTNV-1" source="lhQk18rv9-sTuvD8RSH--48" target="lhQk18rv9-sTuvD8RSH--71" edge="1">
          <mxGeometry relative="1" as="geometry">
            <Array as="points">
              <mxPoint x="1458" y="315" />
              <mxPoint x="1345" y="315" />
            </Array>
          </mxGeometry>
        </mxCell>
        <mxCell id="lhQk18rv9-sTuvD8RSH--124" style="edgeStyle=orthogonalEdgeStyle;rounded=0;orthogonalLoop=1;jettySize=auto;html=1;exitX=0.25;exitY=0;exitDx=0;exitDy=0;entryX=0.5;entryY=1;entryDx=0;entryDy=0;startArrow=none;startFill=0;endArrow=classic;endFill=1;fontSize=28;" parent="WIyWlLk6GJQsqaUBKTNV-1" source="lhQk18rv9-sTuvD8RSH--48" target="lhQk18rv9-sTuvD8RSH--47" edge="1">
          <mxGeometry relative="1" as="geometry">
            <Array as="points">
              <mxPoint x="1393" y="340" />
              <mxPoint x="565" y="340" />
            </Array>
          </mxGeometry>
        </mxCell>
        <mxCell id="lhQk18rv9-sTuvD8RSH--129" style="edgeStyle=orthogonalEdgeStyle;rounded=0;orthogonalLoop=1;jettySize=auto;html=1;exitX=0;exitY=0.5;exitDx=0;exitDy=0;entryX=1;entryY=0.5;entryDx=0;entryDy=0;startArrow=none;startFill=0;endArrow=classic;endFill=1;fontSize=28;" parent="WIyWlLk6GJQsqaUBKTNV-1" source="lhQk18rv9-sTuvD8RSH--48" target="lhQk18rv9-sTuvD8RSH--13" edge="1">
          <mxGeometry relative="1" as="geometry">
            <Array as="points">
              <mxPoint x="1330" y="455" />
              <mxPoint x="1330" y="290" />
              <mxPoint x="980" y="290" />
              <mxPoint x="980" y="190" />
            </Array>
          </mxGeometry>
        </mxCell>
        <mxCell id="lhQk18rv9-sTuvD8RSH--48" value="GameClearView" style="html=1;fillColor=#e1d5e7;strokeColor=#9673a6;" parent="WIyWlLk6GJQsqaUBKTNV-1" vertex="1">
          <mxGeometry x="1360" y="440" width="130" height="30" as="geometry" />
        </mxCell>
        <mxCell id="lhQk18rv9-sTuvD8RSH--49" value="新谷" style="html=1;fillColor=#dae8fc;strokeColor=#6c8ebf;" parent="WIyWlLk6GJQsqaUBKTNV-1" vertex="1">
          <mxGeometry x="10" y="15" width="130" height="30" as="geometry" />
        </mxCell>
        <mxCell id="lhQk18rv9-sTuvD8RSH--50" value="妹尾" style="html=1;fillColor=#e1d5e7;strokeColor=#9673a6;" parent="WIyWlLk6GJQsqaUBKTNV-1" vertex="1">
          <mxGeometry x="10" y="60" width="130" height="30" as="geometry" />
        </mxCell>
        <mxCell id="lhQk18rv9-sTuvD8RSH--51" value="前田" style="html=1;fillColor=#d5e8d4;strokeColor=#82b366;" parent="WIyWlLk6GJQsqaUBKTNV-1" vertex="1">
          <mxGeometry x="10" y="105" width="130" height="30" as="geometry" />
        </mxCell>
        <mxCell id="lhQk18rv9-sTuvD8RSH--70" value="javax.swing.JFrame" style="html=1;fillColor=#f5f5f5;strokeColor=#666666;fontColor=#333333;" parent="WIyWlLk6GJQsqaUBKTNV-1" vertex="1">
          <mxGeometry x="1080" y="160" width="130" height="30" as="geometry" />
        </mxCell>
        <mxCell id="lhQk18rv9-sTuvD8RSH--71" value="java.awt.event.&lt;br&gt;KeyListener" style="html=1;fillColor=#f5f5f5;strokeColor=#666666;fontColor=#333333;" parent="WIyWlLk6GJQsqaUBKTNV-1" vertex="1">
          <mxGeometry x="1280" y="160" width="130" height="30" as="geometry" />
        </mxCell>
        <mxCell id="lhQk18rv9-sTuvD8RSH--72" value="javax.swing.JPanel" style="html=1;fillColor=#f5f5f5;strokeColor=#666666;fontColor=#333333;" parent="WIyWlLk6GJQsqaUBKTNV-1" vertex="1">
          <mxGeometry x="820" y="540" width="130" height="30" as="geometry" />
        </mxCell>
        <mxCell id="lhQk18rv9-sTuvD8RSH--73" value="java.util.Observer" style="html=1;fillColor=#f5f5f5;strokeColor=#666666;fontColor=#333333;" parent="WIyWlLk6GJQsqaUBKTNV-1" vertex="1">
          <mxGeometry x="970" y="540" width="130" height="30" as="geometry" />
        </mxCell>
        <mxCell id="lhQk18rv9-sTuvD8RSH--74" value="java.util.Observable" style="html=1;fillColor=#f5f5f5;strokeColor=#666666;fontColor=#333333;" parent="WIyWlLk6GJQsqaUBKTNV-1" vertex="1">
          <mxGeometry x="500" y="60" width="130" height="30" as="geometry" />
        </mxCell>
        <mxCell id="lhQk18rv9-sTuvD8RSH--44" value="View" style="text;html=1;align=center;verticalAlign=middle;resizable=0;points=[];autosize=1;fontSize=28;" parent="WIyWlLk6GJQsqaUBKTNV-1" vertex="1">
          <mxGeometry x="1030" y="380" width="80" height="40" as="geometry" />
        </mxCell>
        <mxCell id="lhQk18rv9-sTuvD8RSH--134" style="edgeStyle=orthogonalEdgeStyle;rounded=0;orthogonalLoop=1;jettySize=auto;html=1;exitX=1;exitY=0.5;exitDx=0;exitDy=0;entryX=0.25;entryY=0;entryDx=0;entryDy=0;startArrow=block;startFill=0;endArrow=none;endFill=0;fontSize=28;dashed=1;" parent="WIyWlLk6GJQsqaUBKTNV-1" source="lhQk18rv9-sTuvD8RSH--132" target="lhQk18rv9-sTuvD8RSH--47" edge="1">
          <mxGeometry relative="1" as="geometry">
            <Array as="points">
              <mxPoint x="420" y="70" />
              <mxPoint x="420" y="230" />
              <mxPoint x="533" y="230" />
            </Array>
          </mxGeometry>
        </mxCell>
        <mxCell id="lhQk18rv9-sTuvD8RSH--132" value="javax.sound.sampled.&lt;br&gt;LineListener" style="html=1;fillColor=#f5f5f5;strokeColor=#666666;fontColor=#333333;" parent="WIyWlLk6GJQsqaUBKTNV-1" vertex="1">
          <mxGeometry x="240" y="55" width="130" height="30" as="geometry" />
        </mxCell>
        <mxCell id="lhQk18rv9-sTuvD8RSH--137" value="java.awt.event.&lt;br&gt;ActionListener" style="html=1;fillColor=#f5f5f5;strokeColor=#666666;fontColor=#333333;" parent="WIyWlLk6GJQsqaUBKTNV-1" vertex="1">
          <mxGeometry x="1120" y="540" width="130" height="30" as="geometry" />
        </mxCell>
        <mxCell id="lhQk18rv9-sTuvD8RSH--141" style="edgeStyle=orthogonalEdgeStyle;rounded=0;orthogonalLoop=1;jettySize=auto;html=1;exitX=0;exitY=0.5;exitDx=0;exitDy=0;entryX=1;entryY=0.5;entryDx=0;entryDy=0;dashed=1;startArrow=none;startFill=0;endArrow=block;endFill=0;fontSize=28;" parent="WIyWlLk6GJQsqaUBKTNV-1" edge="1">
          <mxGeometry relative="1" as="geometry">
            <mxPoint x="1270" y="810" as="sourcePoint" />
            <mxPoint x="1180" y="810" as="targetPoint" />
            <Array as="points">
              <mxPoint x="1230" y="810" />
              <mxPoint x="1230" y="810" />
            </Array>
          </mxGeometry>
        </mxCell>
        <mxCell id="lhQk18rv9-sTuvD8RSH--142" style="edgeStyle=orthogonalEdgeStyle;rounded=0;orthogonalLoop=1;jettySize=auto;html=1;exitX=0;exitY=0.5;exitDx=0;exitDy=0;entryX=1;entryY=0.5;entryDx=0;entryDy=0;startArrow=none;startFill=0;endArrow=block;endFill=0;fontSize=28;" parent="WIyWlLk6GJQsqaUBKTNV-1" edge="1">
          <mxGeometry relative="1" as="geometry">
            <mxPoint x="1270" y="744.5" as="sourcePoint" />
            <mxPoint x="1180" y="744.5" as="targetPoint" />
            <Array as="points">
              <mxPoint x="1210" y="744.5" />
              <mxPoint x="1210" y="744.5" />
            </Array>
          </mxGeometry>
        </mxCell>
        <mxCell id="lhQk18rv9-sTuvD8RSH--143" style="edgeStyle=orthogonalEdgeStyle;rounded=0;orthogonalLoop=1;jettySize=auto;html=1;exitX=0;exitY=0.5;exitDx=0;exitDy=0;entryX=1;entryY=0.5;entryDx=0;entryDy=0;startArrow=none;startFill=0;endArrow=classic;endFill=1;fontSize=28;" parent="WIyWlLk6GJQsqaUBKTNV-1" edge="1">
          <mxGeometry relative="1" as="geometry">
            <mxPoint x="1270" y="680" as="sourcePoint" />
            <mxPoint x="1180" y="680" as="targetPoint" />
            <Array as="points">
              <mxPoint x="1210" y="680" />
              <mxPoint x="1210" y="680" />
            </Array>
          </mxGeometry>
        </mxCell>
        <mxCell id="lhQk18rv9-sTuvD8RSH--146" value="&lt;font style=&quot;font-size: 20px&quot;&gt;has-a&lt;/font&gt;" style="text;html=1;strokeColor=none;fillColor=none;align=center;verticalAlign=middle;whiteSpace=wrap;rounded=0;fontSize=28;" parent="WIyWlLk6GJQsqaUBKTNV-1" vertex="1">
          <mxGeometry x="1320" y="670" width="90" height="30" as="geometry" />
        </mxCell>
        <mxCell id="lhQk18rv9-sTuvD8RSH--147" value="&lt;span style=&quot;font-size: 20px&quot;&gt;extends&lt;/span&gt;" style="text;html=1;strokeColor=none;fillColor=none;align=center;verticalAlign=middle;whiteSpace=wrap;rounded=0;fontSize=28;" parent="WIyWlLk6GJQsqaUBKTNV-1" vertex="1">
          <mxGeometry x="1320" y="730" width="90" height="30" as="geometry" />
        </mxCell>
        <mxCell id="lhQk18rv9-sTuvD8RSH--148" value="&lt;font style=&quot;font-size: 20px&quot;&gt;implements&lt;/font&gt;" style="text;html=1;strokeColor=none;fillColor=none;align=center;verticalAlign=middle;whiteSpace=wrap;rounded=0;fontSize=28;" parent="WIyWlLk6GJQsqaUBKTNV-1" vertex="1">
          <mxGeometry x="1330" y="790" width="90" height="30" as="geometry" />
        </mxCell>
      </root>
    </mxGraphModel>
  </diagram>
</mxfile>
